<svg width="15" height="22" viewBox="0 0 15 22" fill="none" xmlns="http://www.w3.org/2000/svg">
<path fill-rule="evenodd" clip-rule="evenodd" d="M0.87868 1.37868C1.44129 0.816071 2.20435 0.5 3 0.5H12C12.7956 0.5 13.5587 0.816071 14.1213 1.37868C14.6839 1.94129 15 2.70435 15 3.5V20.75C15 21.0453 14.8267 21.3132 14.5572 21.4342C14.2878 21.5552 13.9725 21.5068 13.7517 21.3106L7.5 15.7535L1.24827 21.3106C1.02753 21.5068 0.712183 21.5552 0.442758 21.4342C0.173333 21.3132 0 21.0453 0 20.75V3.5C0 2.70435 0.316071 1.94129 0.87868 1.37868ZM3 2C2.60218 2 2.22064 2.15804 1.93934 2.43934C1.65804 2.72064 1.5 3.10218 1.5 3.5V19.0799L7.00173 14.1894C7.28589 13.9369 7.71411 13.9369 7.99827 14.1894L13.5 19.0799V3.5C13.5 3.10218 13.342 2.72064 13.0607 2.43934C12.7794 2.15804 12.3978 2 12 2H3Z" fill="#279EF8"/>
</svg>
