<svg width="48" height="41" viewBox="0 0 48 41" fill="none" xmlns="http://www.w3.org/2000/svg">
<rect x="0.5" y="1" width="47" height="39" rx="3.5" fill="#515050"/>
<rect x="0.5" y="1" width="47" height="39" rx="3.5" stroke="black"/>
<g clip-path="url(#clip0_65_2262)">
<path d="M24 11.5C24.132 11.5 24.263 11.5 24.393 11.5C23.1084 12.6937 22.2826 14.2998 22.0593 16.0392C21.836 17.7786 22.2293 19.5412 23.1708 21.0207C24.1122 22.5002 25.5424 23.603 27.2126 24.1375C28.8829 24.6719 30.6876 24.6041 32.313 23.946C31.6878 25.4505 30.6658 26.757 29.3562 27.7263C28.0466 28.6955 26.4985 29.291 24.8769 29.4494C23.2554 29.6077 21.6213 29.323 20.1489 28.6254C18.6765 27.9278 17.4211 26.8437 16.5166 25.4886C15.6121 24.1335 15.0924 22.5583 15.0129 20.931C14.9334 19.3037 15.2972 17.6853 16.0654 16.2485C16.8336 14.8117 17.9774 13.6104 19.3748 12.7727C20.7722 11.935 22.3708 11.4924 24 11.492V11.5Z" stroke="white" stroke-width="2" stroke-linecap="round" stroke-linejoin="round"/>
</g>
<defs>
<clipPath id="clip0_65_2262">
<rect width="24" height="24" fill="white" transform="translate(12 8.5)"/>
</clipPath>
</defs>
</svg>
